<svg width="556.2" height="86.4" viewBox="0 0 556.2 86.4" xmlns="http://www.w3.org/2000/svg"><g id="svgGroup" stroke-linecap="round" fill-rule="evenodd" font-size="9pt" stroke="#ffffff" stroke-width="0.25mm" fill="#ffffff" style="stroke:#ffffff;stroke-width:0.25mm;fill:#ffffff"><path d="M 342.63 66.6 L 334.53 66.6 L 334.53 0 L 342.63 0 L 342.63 27.27 Q 345.15 23.58 349.02 21.15 A 15.815 15.815 0 0 1 355.432 18.891 A 20.336 20.336 0 0 1 358.11 18.72 A 20.902 20.902 0 0 1 362.669 19.186 Q 365.678 19.858 367.871 21.502 A 11.934 11.934 0 0 1 369.945 23.49 A 16.563 16.563 0 0 1 373.189 30.13 Q 373.86 32.848 373.86 36.09 L 373.86 66.6 L 365.76 66.6 L 365.76 36.99 A 17.662 17.662 0 0 0 365.458 33.623 Q 365.071 31.63 364.187 30.057 A 9.884 9.884 0 0 0 363.42 28.89 A 7.578 7.578 0 0 0 357.878 25.878 A 10.781 10.781 0 0 0 356.85 25.83 A 11.907 11.907 0 0 0 350.808 27.51 A 15.827 15.827 0 0 0 348.975 28.755 Q 345.24 31.68 342.63 35.64 L 342.63 66.6 Z M 449.73 66.6 L 441.63 66.6 L 441.63 19.8 L 449.46 19.8 L 449.46 27.63 Q 451.98 23.85 455.895 21.285 A 15.584 15.584 0 0 1 462.29 18.923 A 20.366 20.366 0 0 1 465.21 18.72 A 20.902 20.902 0 0 1 469.769 19.186 Q 472.778 19.858 474.971 21.502 A 11.934 11.934 0 0 1 477.045 23.49 A 16.563 16.563 0 0 1 480.289 30.13 Q 480.96 32.848 480.96 36.09 L 480.96 66.6 L 472.86 66.6 L 472.86 36.99 A 17.338 17.338 0 0 0 472.552 33.623 Q 472.157 31.63 471.257 30.057 A 9.869 9.869 0 0 0 470.475 28.89 A 7.721 7.721 0 0 0 464.826 25.872 A 10.855 10.855 0 0 0 463.86 25.83 Q 459.72 25.83 456.03 28.755 Q 452.34 31.68 449.73 35.64 L 449.73 66.6 Z M 289.17 86.4 L 281.07 86.4 L 281.07 31.77 A 9.913 9.913 0 0 0 280.956 30.208 Q 280.658 28.348 279.585 27.405 A 5.147 5.147 0 0 0 277.074 26.215 A 7.192 7.192 0 0 0 275.76 26.1 L 277.47 19.8 A 15.772 15.772 0 0 1 281.274 20.224 Q 286.276 21.468 287.82 26.37 A 10.282 10.282 0 0 1 288.532 25.436 Q 289.328 24.496 290.567 23.38 A 34.721 34.721 0 0 1 290.745 23.22 A 17.012 17.012 0 0 1 293.176 21.435 A 23.012 23.012 0 0 1 295.785 20.07 A 15.259 15.259 0 0 1 299.888 18.91 A 19.697 19.697 0 0 1 302.67 18.72 Q 308.07 18.72 312.795 21.555 A 20.096 20.096 0 0 1 319.255 27.825 A 24.718 24.718 0 0 1 320.4 29.745 A 23.116 23.116 0 0 1 322.647 36.082 Q 323.28 39.164 323.28 42.75 A 32.913 32.913 0 0 1 322.647 49.348 A 25.295 25.295 0 0 1 320.4 55.845 A 25.062 25.062 0 0 1 316.86 61.094 A 20.726 20.726 0 0 1 312.885 64.575 Q 308.25 67.68 302.85 67.68 Q 298.71 67.68 295.11 66.015 A 27.317 27.317 0 0 1 292.036 64.36 Q 290.422 63.346 289.17 62.19 L 289.17 86.4 Z M 532.8 46.53 L 500.04 46.53 A 21.679 21.679 0 0 0 501.065 51.053 Q 502.136 54.108 504.127 56.272 A 13.482 13.482 0 0 0 504.63 56.79 A 12.729 12.729 0 0 0 511.493 60.22 A 18.019 18.019 0 0 0 514.62 60.48 A 33.056 33.056 0 0 0 518.468 60.266 A 24.818 24.818 0 0 0 521.91 59.625 Q 525.15 58.77 528.12 57.42 L 530.01 64.35 A 36.693 36.693 0 0 1 526.109 65.813 A 46.677 46.677 0 0 1 522.72 66.735 Q 518.67 67.68 513.63 67.68 A 25.486 25.486 0 0 1 506.659 66.775 A 18.997 18.997 0 0 1 497.655 61.245 Q 492.428 55.539 491.836 45.764 A 42.412 42.412 0 0 1 491.76 43.2 A 31.823 31.823 0 0 1 492.509 36.16 A 25.956 25.956 0 0 1 494.415 30.645 Q 497.07 25.11 501.84 21.915 A 18.943 18.943 0 0 1 511.074 18.79 A 23.585 23.585 0 0 1 512.91 18.72 A 25.698 25.698 0 0 1 517.833 19.166 Q 521.4 19.863 524.115 21.645 Q 528.57 24.57 530.82 29.52 A 25.367 25.367 0 0 1 533.004 38.397 A 30.091 30.091 0 0 1 533.07 40.41 A 67.683 67.683 0 0 1 532.808 46.437 A 62.729 62.729 0 0 1 532.8 46.53 Z M 35.46 21.51 L 33.03 28.35 A 27.38 27.38 0 0 0 30.416 27.202 A 21.078 21.078 0 0 0 28.215 26.505 A 18.489 18.489 0 0 0 25.477 26.032 A 23.719 23.719 0 0 0 23.13 25.92 A 14.3 14.3 0 0 0 16.603 27.398 A 14.519 14.519 0 0 0 12.555 30.465 A 15.062 15.062 0 0 0 8.986 37.084 Q 8.368 39.431 8.291 42.215 A 29.047 29.047 0 0 0 8.28 43.02 A 22.673 22.673 0 0 0 8.915 48.474 A 19.305 19.305 0 0 0 10.08 51.84 A 16.707 16.707 0 0 0 12.699 55.96 A 14.648 14.648 0 0 0 15.075 58.14 A 12.117 12.117 0 0 0 21.528 60.443 A 15.215 15.215 0 0 0 22.59 60.48 A 25.579 25.579 0 0 0 25.205 60.354 Q 26.493 60.221 27.601 59.949 A 13.572 13.572 0 0 0 28.44 59.715 Q 30.861 58.953 33.638 57.521 A 43.823 43.823 0 0 0 33.66 57.51 L 36.18 64.35 Q 33.39 65.88 29.925 66.78 Q 26.514 67.666 22.188 67.68 A 43.026 43.026 0 0 1 22.05 67.68 A 24.123 24.123 0 0 1 15.715 66.879 A 19.867 19.867 0 0 1 10.395 64.575 Q 5.4 61.47 2.7 55.935 A 26.426 26.426 0 0 1 0.326 48.005 A 34.219 34.219 0 0 1 0 43.2 A 33.118 33.118 0 0 1 0 43.095 Q 0.015 38.601 1.249 34.627 A 25.905 25.905 0 0 1 2.745 30.87 Q 5.49 25.29 10.62 22.005 A 20.761 20.761 0 0 1 19.321 18.926 A 26.648 26.648 0 0 1 22.68 18.72 A 37.178 37.178 0 0 1 25.964 18.858 Q 27.959 19.035 29.655 19.44 Q 32.67 20.16 35.46 21.51 Z M 130.86 21.51 L 128.43 28.35 A 27.38 27.38 0 0 0 125.816 27.202 A 21.078 21.078 0 0 0 123.615 26.505 A 18.489 18.489 0 0 0 120.877 26.032 A 23.719 23.719 0 0 0 118.53 25.92 A 14.3 14.3 0 0 0 112.003 27.398 A 14.519 14.519 0 0 0 107.955 30.465 A 15.062 15.062 0 0 0 104.386 37.084 Q 103.768 39.431 103.691 42.215 A 29.047 29.047 0 0 0 103.68 43.02 A 22.673 22.673 0 0 0 104.315 48.474 A 19.305 19.305 0 0 0 105.48 51.84 A 16.707 16.707 0 0 0 108.099 55.96 A 14.648 14.648 0 0 0 110.475 58.14 A 12.117 12.117 0 0 0 116.928 60.443 A 15.215 15.215 0 0 0 117.99 60.48 A 25.579 25.579 0 0 0 120.605 60.354 Q 121.893 60.221 123.001 59.949 A 13.572 13.572 0 0 0 123.84 59.715 Q 126.261 58.953 129.038 57.521 A 43.823 43.823 0 0 0 129.06 57.51 L 131.58 64.35 Q 128.79 65.88 125.325 66.78 Q 121.914 67.666 117.588 67.68 A 43.026 43.026 0 0 1 117.45 67.68 A 24.123 24.123 0 0 1 111.115 66.879 A 19.867 19.867 0 0 1 105.795 64.575 Q 100.8 61.47 98.1 55.935 A 26.426 26.426 0 0 1 95.726 48.005 A 34.219 34.219 0 0 1 95.4 43.2 A 33.118 33.118 0 0 1 95.4 43.095 Q 95.415 38.601 96.649 34.627 A 25.905 25.905 0 0 1 98.145 30.87 Q 100.89 25.29 106.02 22.005 A 20.761 20.761 0 0 1 114.721 18.926 A 26.648 26.648 0 0 1 118.08 18.72 A 37.178 37.178 0 0 1 121.364 18.858 Q 123.359 19.035 125.055 19.44 Q 128.07 20.16 130.86 21.51 Z M 202.05 66.6 L 193.95 66.6 L 193.95 19.8 L 201.78 19.8 L 201.78 29.97 Q 202.95 27 204.93 24.435 Q 206.91 21.87 209.88 20.295 Q 212.85 18.72 216.81 18.72 Q 218.16 18.72 219.51 18.855 A 17.075 17.075 0 0 1 220.459 18.975 Q 221.198 19.091 221.76 19.26 L 219.33 27.63 A 8.786 8.786 0 0 0 217.399 27.079 Q 216.506 26.926 215.491 26.911 A 14.933 14.933 0 0 0 215.28 26.91 A 11.662 11.662 0 0 0 209.313 28.571 A 14.048 14.048 0 0 0 208.935 28.8 A 12.062 12.062 0 0 0 205.81 31.677 Q 204.801 32.979 203.985 34.65 Q 202.399 37.897 202.113 42.595 A 35.181 35.181 0 0 0 202.05 44.73 L 202.05 66.6 Z M 56.665 66.475 A 24.493 24.493 0 0 0 64.44 67.68 A 27.654 27.654 0 0 0 66.487 67.605 A 22.731 22.731 0 0 0 76.365 64.62 Q 81.63 61.56 84.69 56.025 A 23.63 23.63 0 0 0 87.078 49.598 A 30.766 30.766 0 0 0 87.75 43.02 Q 87.75 35.55 84.645 30.105 Q 81.54 24.66 76.275 21.69 A 22.364 22.364 0 0 0 72.098 19.866 A 24.964 24.964 0 0 0 64.44 18.72 Q 57.87 18.72 52.56 21.69 Q 47.25 24.66 44.19 30.15 A 23.42 23.42 0 0 0 41.716 36.981 A 31.505 31.505 0 0 0 41.13 43.2 A 31.338 31.338 0 0 0 41.369 47.118 A 24.706 24.706 0 0 0 44.145 55.935 Q 47.16 61.47 52.47 64.575 A 22.103 22.103 0 0 0 56.665 66.475 Z M 152.065 66.475 A 24.493 24.493 0 0 0 159.84 67.68 A 27.654 27.654 0 0 0 161.887 67.605 A 22.731 22.731 0 0 0 171.765 64.62 Q 177.03 61.56 180.09 56.025 A 23.63 23.63 0 0 0 182.478 49.598 A 30.766 30.766 0 0 0 183.15 43.02 Q 183.15 35.55 180.045 30.105 Q 176.94 24.66 171.675 21.69 A 22.364 22.364 0 0 0 167.498 19.866 A 24.964 24.964 0 0 0 159.84 18.72 Q 153.27 18.72 147.96 21.69 Q 142.65 24.66 139.59 30.15 A 23.42 23.42 0 0 0 137.116 36.981 A 31.505 31.505 0 0 0 136.53 43.2 A 31.338 31.338 0 0 0 136.769 47.118 A 24.706 24.706 0 0 0 139.545 55.935 Q 142.56 61.47 147.87 64.575 A 22.103 22.103 0 0 0 152.065 66.475 Z M 399.745 66.475 A 24.493 24.493 0 0 0 407.52 67.68 A 27.654 27.654 0 0 0 409.567 67.605 A 22.731 22.731 0 0 0 419.445 64.62 Q 424.71 61.56 427.77 56.025 A 23.63 23.63 0 0 0 430.158 49.598 A 30.766 30.766 0 0 0 430.83 43.02 Q 430.83 35.55 427.725 30.105 Q 424.62 24.66 419.355 21.69 A 22.364 22.364 0 0 0 415.178 19.866 A 24.964 24.964 0 0 0 407.52 18.72 Q 400.95 18.72 395.64 21.69 Q 390.33 24.66 387.27 30.15 A 23.42 23.42 0 0 0 384.796 36.981 A 31.505 31.505 0 0 0 384.21 43.2 A 31.338 31.338 0 0 0 384.449 47.118 A 24.706 24.706 0 0 0 387.225 55.935 Q 390.24 61.47 395.55 64.575 A 22.103 22.103 0 0 0 399.745 66.475 Z M 237.96 66.6 L 229.86 66.6 L 229.86 19.8 L 237.96 19.8 L 237.96 66.6 Z M 64.44 60.48 A 16.867 16.867 0 0 0 69.144 59.858 A 12.601 12.601 0 0 0 75.51 55.665 Q 79.47 50.85 79.47 43.2 Q 79.47 38.52 77.49 34.605 A 17.278 17.278 0 0 0 73.735 29.593 A 16.353 16.353 0 0 0 72.135 28.305 Q 68.76 25.92 64.44 25.92 A 17.324 17.324 0 0 0 59.737 26.524 A 12.633 12.633 0 0 0 53.37 30.6 A 16.09 16.09 0 0 0 50.064 37.236 Q 49.471 39.628 49.416 42.435 A 29.583 29.583 0 0 0 49.41 43.02 Q 49.41 47.7 51.39 51.705 A 17.493 17.493 0 0 0 54.567 56.241 A 15.865 15.865 0 0 0 56.745 58.095 Q 60.12 60.48 64.44 60.48 Z M 159.84 60.48 A 16.867 16.867 0 0 0 164.544 59.858 A 12.601 12.601 0 0 0 170.91 55.665 Q 174.87 50.85 174.87 43.2 Q 174.87 38.52 172.89 34.605 A 17.278 17.278 0 0 0 169.135 29.593 A 16.353 16.353 0 0 0 167.535 28.305 Q 164.16 25.92 159.84 25.92 A 17.324 17.324 0 0 0 155.137 26.524 A 12.633 12.633 0 0 0 148.77 30.6 A 16.09 16.09 0 0 0 145.464 37.236 Q 144.871 39.628 144.816 42.435 A 29.583 29.583 0 0 0 144.81 43.02 Q 144.81 47.7 146.79 51.705 A 17.493 17.493 0 0 0 149.967 56.241 A 15.865 15.865 0 0 0 152.145 58.095 Q 155.52 60.48 159.84 60.48 Z M 407.52 60.48 A 16.867 16.867 0 0 0 412.224 59.858 A 12.601 12.601 0 0 0 418.59 55.665 Q 422.55 50.85 422.55 43.2 Q 422.55 38.52 420.57 34.605 A 17.278 17.278 0 0 0 416.815 29.593 A 16.353 16.353 0 0 0 415.215 28.305 Q 411.84 25.92 407.52 25.92 A 17.324 17.324 0 0 0 402.817 26.524 A 12.633 12.633 0 0 0 396.45 30.6 A 16.09 16.09 0 0 0 393.144 37.236 Q 392.551 39.628 392.496 42.435 A 29.583 29.583 0 0 0 392.49 43.02 Q 392.49 47.7 394.47 51.705 A 17.493 17.493 0 0 0 397.647 56.241 A 15.865 15.865 0 0 0 399.825 58.095 Q 403.2 60.48 407.52 60.48 Z M 289.17 31.86 L 289.17 54.9 Q 291.51 57.33 294.57 58.905 Q 297.63 60.48 301.23 60.48 A 12.56 12.56 0 0 0 306.776 59.276 Q 309.263 58.072 311.175 55.665 Q 315 50.85 315 43.02 Q 315 37.812 313.201 34.028 A 15.605 15.605 0 0 0 313.065 33.75 Q 311.13 29.88 307.935 27.81 Q 304.74 25.74 300.87 25.74 A 13.267 13.267 0 0 0 295.806 26.697 A 12.649 12.649 0 0 0 293.895 27.675 Q 290.79 29.61 289.17 31.86 Z M 499.95 39.96 L 525.6 39.96 A 21.92 21.92 0 0 0 525.236 35.833 Q 524.79 33.508 523.796 31.686 A 11.18 11.18 0 0 0 522.18 29.43 A 11.24 11.24 0 0 0 515.916 26.032 A 16.556 16.556 0 0 0 512.73 25.74 A 12.222 12.222 0 0 0 508.13 26.581 A 11.272 11.272 0 0 0 504.09 29.385 A 13.649 13.649 0 0 0 501.444 33.605 Q 500.685 35.459 500.267 37.729 A 28.819 28.819 0 0 0 499.95 39.96 Z M 545.997 65.936 A 5.776 5.776 0 0 0 550.17 67.68 A 7.745 7.745 0 0 0 550.73 67.66 A 5.815 5.815 0 0 0 554.49 66.015 A 5.428 5.428 0 0 0 555.923 63.655 A 6.925 6.925 0 0 0 556.2 61.65 Q 556.2 59.22 554.355 57.42 A 7.631 7.631 0 0 0 553.886 56.998 A 5.693 5.693 0 0 0 550.17 55.62 Q 547.38 55.62 545.76 57.24 A 5.335 5.335 0 0 0 544.349 59.796 A 7.762 7.762 0 0 0 544.14 61.65 Q 544.14 64.08 545.94 65.88 A 7.481 7.481 0 0 0 545.997 65.936 Z M 229.984 10.159 A 5.375 5.375 0 0 0 233.91 11.79 A 7.358 7.358 0 0 0 235.257 11.672 A 5.082 5.082 0 0 0 238.05 10.215 A 5.199 5.199 0 0 0 239.332 7.995 A 6.76 6.76 0 0 0 239.58 6.12 A 6.535 6.535 0 0 0 239.58 6.047 A 5.454 5.454 0 0 0 237.915 2.115 A 6.657 6.657 0 0 0 237.863 2.063 A 5.453 5.453 0 0 0 233.91 0.45 A 7.437 7.437 0 0 0 232.42 0.592 A 5.095 5.095 0 0 0 229.77 1.98 A 5.029 5.029 0 0 0 228.446 4.349 A 7.189 7.189 0 0 0 228.24 6.12 A 5.392 5.392 0 0 0 228.683 8.297 A 5.979 5.979 0 0 0 229.905 10.08 A 6.721 6.721 0 0 0 229.984 10.159 Z"/></g></svg>