<svg width="569.882" height="98.01" viewBox="0 0 569.882 98.01" xmlns="http://www.w3.org/2000/svg"><g id="svgGroup" stroke-linecap="round" fill-rule="evenodd" font-size="9pt" stroke="#000" stroke-width="0.25mm" fill="#000" style="stroke:#000;stroke-width:0.25mm;fill:#000"><path d="M 349.471 57.78 L 349.471 15.03 Q 349.471 9.09 349.201 6.21 L 342.091 5.31 A 5.206 5.206 0 0 1 341.946 4.495 Q 341.835 3.403 342.08 1.956 A 14.935 14.935 0 0 1 342.091 1.89 A 130.199 130.199 0 0 0 346.63 1.464 Q 351.338 0.945 357.481 0 A 4.458 4.458 0 0 1 357.962 0.633 Q 358.323 1.216 358.381 1.8 A 12.729 12.729 0 0 0 358.228 3.026 Q 357.931 6.435 357.931 16.38 L 357.931 33.39 Q 364.591 24.21 373.951 24.21 Q 379.531 24.21 383.491 27 Q 386.91 29.409 387.377 34.768 A 20.407 20.407 0 0 1 387.451 36.54 L 387.451 68.85 L 394.741 70.2 A 5.895 5.895 0 0 1 394.887 71.067 Q 394.999 72.235 394.747 73.766 A 16.113 16.113 0 0 1 394.741 73.8 Q 389.071 73.53 383.221 73.53 Q 380.051 73.53 374.877 73.636 A 984.786 984.786 0 0 0 371.521 73.71 Q 371.015 72.107 371.458 70.425 A 6.869 6.869 0 0 1 371.521 70.2 L 378.631 69.21 A 126.96 126.96 0 0 0 378.877 64.586 Q 378.963 62.215 378.984 59.572 A 221.842 221.842 0 0 0 378.991 57.78 L 378.991 41.04 A 40.05 40.05 0 0 0 378.88 37.941 Q 378.645 34.923 377.912 33.015 A 8.001 8.001 0 0 0 377.416 31.95 Q 375.903 29.27 372.024 29.164 A 11.843 11.843 0 0 0 371.701 29.16 Q 368.281 29.16 364.546 31.68 A 19.736 19.736 0 0 0 360.717 35.109 Q 359.259 36.782 357.972 38.903 A 32.692 32.692 0 0 0 357.931 38.97 L 357.931 68.85 L 365.221 70.2 A 5.895 5.895 0 0 1 365.367 71.067 Q 365.479 72.235 365.227 73.766 A 16.113 16.113 0 0 1 365.221 73.8 Q 359.551 73.53 353.701 73.53 Q 350.531 73.53 345.357 73.636 A 984.786 984.786 0 0 0 342.001 73.71 Q 341.495 72.107 341.938 70.425 A 6.869 6.869 0 0 1 342.001 70.2 L 349.111 69.21 A 126.96 126.96 0 0 0 349.357 64.586 Q 349.443 62.215 349.464 59.572 A 221.842 221.842 0 0 0 349.471 57.78 Z M 489.601 57.78 L 489.601 41.31 A 41.277 41.277 0 0 0 489.486 38.104 Q 489.14 33.682 487.756 31.59 A 5.903 5.903 0 0 0 484.269 29.13 Q 483.076 28.8 481.591 28.8 Q 474.931 28.8 468.181 38.79 L 468.181 68.85 L 475.471 70.2 A 5.895 5.895 0 0 1 475.617 71.067 Q 475.729 72.235 475.477 73.766 A 16.113 16.113 0 0 1 475.471 73.8 Q 469.801 73.53 463.861 73.53 Q 460.691 73.53 455.517 73.636 A 984.786 984.786 0 0 0 452.161 73.71 Q 451.655 72.107 452.098 70.425 A 6.869 6.869 0 0 1 452.161 70.2 L 459.271 69.21 A 126.96 126.96 0 0 0 459.517 64.586 Q 459.603 62.215 459.624 59.572 A 221.842 221.842 0 0 0 459.631 57.78 L 459.631 33.12 A 21.152 21.152 0 0 0 459.546 31.18 A 16.954 16.954 0 0 0 459.361 29.79 L 452.251 28.89 A 5.206 5.206 0 0 1 452.106 28.075 Q 451.995 26.983 452.24 25.536 A 14.935 14.935 0 0 1 452.251 25.47 A 130.955 130.955 0 0 0 457.11 25.019 Q 459.451 24.761 462.106 24.401 A 292.609 292.609 0 0 0 467.731 23.58 A 4.458 4.458 0 0 1 468.212 24.213 Q 468.573 24.796 468.631 25.38 Q 468.185 27.701 468.181 33.297 A 142.465 142.465 0 0 0 468.181 33.39 A 31.912 31.912 0 0 1 472.442 28.538 Q 475.239 25.982 478.278 24.743 A 15.552 15.552 0 0 1 484.201 23.58 A 21.249 21.249 0 0 1 489.626 24.21 Q 498.151 26.468 498.151 36.81 L 498.151 68.85 L 505.441 70.2 A 5.895 5.895 0 0 1 505.587 71.067 Q 505.699 72.235 505.447 73.766 A 16.113 16.113 0 0 1 505.441 73.8 Q 499.771 73.53 493.831 73.53 Q 490.661 73.53 485.487 73.636 A 984.786 984.786 0 0 0 482.131 73.71 Q 481.625 72.107 482.068 70.425 A 6.869 6.869 0 0 1 482.131 70.2 L 489.241 69.21 A 126.96 126.96 0 0 0 489.487 64.586 Q 489.573 62.215 489.594 59.572 A 221.842 221.842 0 0 0 489.601 57.78 Z M 292.591 81.99 L 292.591 38.25 Q 292.591 32.22 292.321 29.79 L 285.211 28.89 A 7.843 7.843 0 0 1 285.095 27.94 Q 285.025 26.833 285.211 25.47 A 131.004 131.004 0 0 0 290.339 24.993 Q 292.646 24.737 295.234 24.383 A 277.919 277.919 0 0 0 300.691 23.58 Q 301.501 24.39 301.591 25.38 A 45.348 45.348 0 0 0 301.171 30.254 A 52.636 52.636 0 0 0 301.141 32.04 A 27.886 27.886 0 0 1 306.597 27.094 A 19.733 19.733 0 0 1 317.881 23.58 A 15.936 15.936 0 0 1 329.883 28.791 A 21.485 21.485 0 0 1 331.066 30.15 Q 336.039 36.356 336.315 46.337 A 42.894 42.894 0 0 1 336.331 47.52 A 36.919 36.919 0 0 1 335.363 56.213 A 25.708 25.708 0 0 1 329.446 67.635 A 24.644 24.644 0 0 1 323.443 72.559 A 20.264 20.264 0 0 1 313.201 75.24 A 19.277 19.277 0 0 1 301.313 71.141 A 23.818 23.818 0 0 1 301.141 71.01 L 301.141 93.06 L 310.231 94.41 A 5.895 5.895 0 0 1 310.377 95.277 Q 310.489 96.445 310.237 97.976 A 16.113 16.113 0 0 1 310.231 98.01 Q 304.561 97.74 297.721 97.74 A 338.26 338.26 0 0 0 295.043 97.751 Q 290.791 97.785 285.121 97.92 Q 284.581 96.12 285.121 94.41 L 292.231 93.42 A 126.96 126.96 0 0 0 292.477 88.796 Q 292.563 86.425 292.584 83.782 A 221.842 221.842 0 0 0 292.591 81.99 Z M 39.331 36.9 Q 37.441 38.88 30.421 38.79 A 29.262 29.262 0 0 0 29.627 34.686 Q 28.351 30.08 25.703 28.406 A 6.358 6.358 0 0 0 22.231 27.45 Q 17.419 27.45 13.937 32.476 A 20.6 20.6 0 0 0 13.231 33.57 Q 10.206 38.588 9.661 46.207 A 48.714 48.714 0 0 0 9.541 49.68 Q 9.541 59.94 12.781 65.475 A 11.568 11.568 0 0 0 15.807 68.955 Q 18.145 70.705 21.355 70.965 A 14.204 14.204 0 0 0 22.501 71.01 A 17.937 17.937 0 0 0 30.633 68.991 Q 33.117 67.742 35.563 65.721 A 33.041 33.041 0 0 0 35.911 65.43 A 4.17 4.17 0 0 1 37.152 66.599 Q 37.638 67.276 37.981 68.22 Q 31.411 75.24 21.511 75.24 Q 12.061 75.24 6.031 68.715 A 20.734 20.734 0 0 1 1.629 61.022 Q 0.001 56.093 0.001 49.5 A 35.525 35.525 0 0 1 0.793 41.769 Q 2.306 34.983 6.706 30.465 A 24.311 24.311 0 0 1 12.59 25.944 A 19.679 19.679 0 0 1 22.051 23.58 A 23.183 23.183 0 0 1 29.141 24.632 A 20.289 20.289 0 0 1 34.111 27 A 11.413 11.413 0 0 1 37.847 30.86 Q 39.099 33.041 39.295 35.842 A 15.187 15.187 0 0 1 39.331 36.9 Z M 138.331 36.9 Q 136.441 38.88 129.421 38.79 A 29.262 29.262 0 0 0 128.627 34.686 Q 127.351 30.08 124.703 28.406 A 6.358 6.358 0 0 0 121.231 27.45 Q 116.419 27.45 112.937 32.476 A 20.6 20.6 0 0 0 112.231 33.57 Q 109.206 38.588 108.661 46.207 A 48.714 48.714 0 0 0 108.541 49.68 Q 108.541 59.94 111.781 65.475 A 11.568 11.568 0 0 0 114.807 68.955 Q 117.145 70.705 120.355 70.965 A 14.204 14.204 0 0 0 121.501 71.01 A 17.937 17.937 0 0 0 129.633 68.991 Q 132.117 67.742 134.563 65.721 A 33.041 33.041 0 0 0 134.911 65.43 A 4.17 4.17 0 0 1 136.152 66.599 Q 136.638 67.276 136.981 68.22 Q 130.411 75.24 120.511 75.24 Q 111.061 75.24 105.031 68.715 A 20.734 20.734 0 0 1 100.629 61.022 Q 99.001 56.093 99.001 49.5 A 35.525 35.525 0 0 1 99.793 41.769 Q 101.306 34.983 105.706 30.465 A 24.311 24.311 0 0 1 111.59 25.944 A 19.679 19.679 0 0 1 121.051 23.58 A 23.183 23.183 0 0 1 128.141 24.632 A 20.289 20.289 0 0 1 133.111 27 A 11.413 11.413 0 0 1 136.847 30.86 Q 138.099 33.041 138.295 35.842 A 15.187 15.187 0 0 1 138.331 36.9 Z M 213.481 25.38 L 213.301 34.65 A 26.026 26.026 0 0 1 217.442 29.047 A 31.596 31.596 0 0 1 219.556 27.045 Q 223.561 23.58 227.161 23.58 A 21.094 21.094 0 0 1 229.638 23.718 Q 230.963 23.875 232.111 24.21 Q 232.711 25.184 232.811 26.658 A 9.019 9.019 0 0 1 232.831 27.27 A 14.786 14.786 0 0 1 231.934 32.282 A 17.337 17.337 0 0 1 231.571 33.21 A 24.949 24.949 0 0 0 227.674 32.442 A 20.758 20.758 0 0 0 225.361 32.31 A 13.287 13.287 0 0 0 215.256 36.882 A 20.753 20.753 0 0 0 213.211 39.51 L 213.031 55.26 L 213.031 68.85 L 223.021 70.2 A 5.895 5.895 0 0 1 223.167 71.067 Q 223.279 72.235 223.027 73.766 A 16.113 16.113 0 0 1 223.021 73.8 A 222.392 222.392 0 0 0 217.75 73.615 Q 214.162 73.53 210.061 73.53 A 410.633 410.633 0 0 0 205.652 73.555 Q 201.736 73.597 197.011 73.71 Q 196.505 72.107 196.948 70.425 A 6.869 6.869 0 0 1 197.011 70.2 L 204.121 69.21 A 126.96 126.96 0 0 0 204.367 64.586 Q 204.453 62.215 204.474 59.572 A 221.842 221.842 0 0 0 204.481 57.78 L 204.481 33.12 A 21.152 21.152 0 0 0 204.396 31.18 A 16.954 16.954 0 0 0 204.211 29.79 L 197.101 28.89 A 5.206 5.206 0 0 1 196.956 28.075 Q 196.845 26.983 197.09 25.536 A 14.935 14.935 0 0 1 197.101 25.47 A 130.955 130.955 0 0 0 201.96 25.019 Q 204.301 24.761 206.956 24.401 A 292.609 292.609 0 0 0 212.581 23.58 A 4.458 4.458 0 0 1 213.062 24.213 Q 213.423 24.796 213.481 25.38 Z M 548.281 48.06 L 520.021 48.06 A 68.103 68.103 0 0 0 519.981 49.836 Q 519.787 71.01 533.791 71.01 A 15.764 15.764 0 0 0 540.168 69.594 Q 543.292 68.222 546.481 65.52 A 4.17 4.17 0 0 1 547.722 66.689 Q 548.208 67.366 548.551 68.31 A 20.079 20.079 0 0 1 533.98 75.213 A 25.439 25.439 0 0 1 532.801 75.24 A 26.493 26.493 0 0 1 523.452 73.725 Q 510.841 68.984 510.841 49.41 A 37.19 37.19 0 0 1 511.572 41.801 Q 513.018 34.887 517.321 30.375 Q 523.801 23.58 532.441 23.58 A 21.254 21.254 0 0 1 537.707 24.19 A 13.362 13.362 0 0 1 546.031 30.15 A 24.991 24.991 0 0 1 549.054 37.378 Q 549.857 40.541 550.083 44.257 A 49.337 49.337 0 0 1 550.171 47.25 Q 549.271 47.97 548.281 48.06 Z M 252.181 39.96 L 252.181 68.85 L 259.471 70.2 A 13.654 13.654 0 0 1 259.545 70.602 Q 259.582 70.819 259.606 71.01 Q 259.651 71.367 259.651 71.813 A 8.809 8.809 0 0 1 259.651 71.82 A 10.047 10.047 0 0 1 259.627 72.505 A 11.66 11.66 0 0 1 259.606 72.765 Q 259.561 73.26 259.471 73.8 Q 253.801 73.53 247.861 73.53 A 237.904 237.904 0 0 0 246.188 73.536 Q 245.441 73.542 244.611 73.551 A 466.88 466.88 0 0 0 242.866 73.575 A 646.837 646.837 0 0 0 240.143 73.623 Q 238.751 73.65 237.207 73.686 A 1105.778 1105.778 0 0 0 236.161 73.71 A 5.37 5.37 0 0 1 235.891 72.007 A 6.176 6.176 0 0 1 235.891 72 A 5.757 5.757 0 0 1 235.956 71.159 Q 236.024 70.703 236.161 70.2 L 243.271 69.21 A 127.251 127.251 0 0 0 243.461 65.937 A 151.225 151.225 0 0 0 243.541 63.855 Q 243.631 61.02 243.631 57.78 L 243.631 38.61 Q 243.631 32.723 243.366 29.842 A 30.561 30.561 0 0 0 243.361 29.79 L 236.251 28.89 Q 236.114 28.548 236.081 27.844 A 10.409 10.409 0 0 1 236.071 27.36 L 236.071 26.46 Q 236.071 26.038 236.229 25.537 A 4.448 4.448 0 0 1 236.251 25.47 Q 240.363 25.228 245.937 24.458 A 237.333 237.333 0 0 0 251.731 23.58 A 4.458 4.458 0 0 1 252.212 24.213 Q 252.573 24.796 252.631 25.38 A 14.744 14.744 0 0 0 252.478 26.66 Q 252.205 29.884 252.183 38.447 A 598.209 598.209 0 0 0 252.181 39.96 Z M 46.778 41.818 A 32.819 32.819 0 0 0 45.901 49.5 A 37.774 37.774 0 0 0 46.063 53.035 A 30.717 30.717 0 0 0 47.476 59.895 A 27.815 27.815 0 0 0 48.237 61.917 A 23.26 23.26 0 0 0 51.976 68.04 Q 54.901 71.46 59.086 73.35 Q 63.271 75.24 68.581 75.24 Q 73.621 75.24 77.851 73.305 Q 82.081 71.37 85.096 67.905 Q 88.111 64.44 89.776 59.76 Q 91.441 55.08 91.441 49.5 A 35.086 35.086 0 0 0 91.409 47.995 A 30.468 30.468 0 0 0 89.821 39.375 A 28.387 28.387 0 0 0 89.394 38.213 A 24.471 24.471 0 0 0 85.186 31.14 Q 82.171 27.63 77.941 25.605 Q 73.711 23.58 68.581 23.58 A 25.066 25.066 0 0 0 66.036 23.707 A 20.364 20.364 0 0 0 59.176 25.605 Q 54.991 27.63 52.021 31.14 A 23.042 23.042 0 0 0 50.461 33.21 A 25.542 25.542 0 0 0 47.476 39.375 A 29.467 29.467 0 0 0 46.778 41.818 Z M 145.778 41.818 A 32.819 32.819 0 0 0 144.901 49.5 A 37.774 37.774 0 0 0 145.063 53.035 A 30.717 30.717 0 0 0 146.476 59.895 A 27.815 27.815 0 0 0 147.237 61.917 A 23.26 23.26 0 0 0 150.976 68.04 Q 153.901 71.46 158.086 73.35 Q 162.271 75.24 167.581 75.24 Q 172.621 75.24 176.851 73.305 Q 181.081 71.37 184.096 67.905 Q 187.111 64.44 188.776 59.76 Q 190.441 55.08 190.441 49.5 A 35.086 35.086 0 0 0 190.409 47.995 A 30.468 30.468 0 0 0 188.821 39.375 A 28.387 28.387 0 0 0 188.394 38.213 A 24.471 24.471 0 0 0 184.186 31.14 Q 181.171 27.63 176.941 25.605 Q 172.711 23.58 167.581 23.58 A 25.066 25.066 0 0 0 165.036 23.707 A 20.364 20.364 0 0 0 158.176 25.605 Q 153.991 27.63 151.021 31.14 A 23.042 23.042 0 0 0 149.461 33.21 A 25.542 25.542 0 0 0 146.476 39.375 A 29.467 29.467 0 0 0 145.778 41.818 Z M 400.928 41.818 A 32.819 32.819 0 0 0 400.051 49.5 A 37.774 37.774 0 0 0 400.213 53.035 A 30.717 30.717 0 0 0 401.626 59.895 A 27.815 27.815 0 0 0 402.387 61.917 A 23.26 23.26 0 0 0 406.126 68.04 Q 409.051 71.46 413.236 73.35 Q 417.421 75.24 422.731 75.24 Q 427.771 75.24 432.001 73.305 Q 436.231 71.37 439.246 67.905 Q 442.261 64.44 443.926 59.76 Q 445.591 55.08 445.591 49.5 A 35.086 35.086 0 0 0 445.559 47.995 A 30.468 30.468 0 0 0 443.971 39.375 A 28.387 28.387 0 0 0 443.544 38.213 A 24.471 24.471 0 0 0 439.336 31.14 Q 436.321 27.63 432.091 25.605 Q 427.861 23.58 422.731 23.58 A 25.066 25.066 0 0 0 420.186 23.707 A 20.364 20.364 0 0 0 413.326 25.605 Q 409.141 27.63 406.171 31.14 A 23.042 23.042 0 0 0 404.611 33.21 A 25.542 25.542 0 0 0 401.626 39.375 A 29.467 29.467 0 0 0 400.928 41.818 Z M 59.041 32.94 A 17.836 17.836 0 0 0 56.702 37.783 Q 55.171 42.538 55.171 49.5 A 49.469 49.469 0 0 0 55.369 54.045 Q 55.576 56.285 55.999 58.242 A 28.452 28.452 0 0 0 56.206 59.13 Q 57.241 63.27 59.041 66.015 A 14.146 14.146 0 0 0 60.867 68.282 A 10.883 10.883 0 0 0 63.271 70.11 Q 65.701 71.46 68.581 71.46 Q 71.371 71.46 73.891 70.11 A 11.186 11.186 0 0 0 77.079 67.522 A 14.27 14.27 0 0 0 78.211 66.015 A 18.773 18.773 0 0 0 79.74 63.135 Q 80.517 61.329 81.091 59.13 A 31.417 31.417 0 0 0 81.866 54.952 Q 82.171 52.417 82.171 49.5 A 47.694 47.694 0 0 0 81.964 44.946 Q 81.74 42.611 81.272 40.571 A 28.077 28.077 0 0 0 81.091 39.825 A 28.638 28.638 0 0 0 80.087 36.662 Q 79.261 34.525 78.166 32.895 Q 76.321 30.15 73.846 28.755 Q 71.371 27.36 68.581 27.36 Q 63.001 27.36 59.041 32.94 Z M 158.041 32.94 A 17.836 17.836 0 0 0 155.702 37.783 Q 154.171 42.538 154.171 49.5 A 49.469 49.469 0 0 0 154.369 54.045 Q 154.576 56.285 154.999 58.242 A 28.452 28.452 0 0 0 155.206 59.13 Q 156.241 63.27 158.041 66.015 A 14.146 14.146 0 0 0 159.867 68.282 A 10.883 10.883 0 0 0 162.271 70.11 Q 164.701 71.46 167.581 71.46 Q 170.371 71.46 172.891 70.11 A 11.186 11.186 0 0 0 176.079 67.522 A 14.27 14.27 0 0 0 177.211 66.015 A 18.773 18.773 0 0 0 178.74 63.135 Q 179.517 61.329 180.091 59.13 A 31.417 31.417 0 0 0 180.866 54.952 Q 181.171 52.417 181.171 49.5 A 47.694 47.694 0 0 0 180.964 44.946 Q 180.74 42.611 180.272 40.571 A 28.077 28.077 0 0 0 180.091 39.825 A 28.638 28.638 0 0 0 179.087 36.662 Q 178.261 34.525 177.166 32.895 Q 175.321 30.15 172.846 28.755 Q 170.371 27.36 167.581 27.36 Q 162.001 27.36 158.041 32.94 Z M 413.191 32.94 A 17.836 17.836 0 0 0 410.852 37.783 Q 409.321 42.538 409.321 49.5 A 49.469 49.469 0 0 0 409.519 54.045 Q 409.726 56.285 410.149 58.242 A 28.452 28.452 0 0 0 410.356 59.13 Q 411.391 63.27 413.191 66.015 A 14.146 14.146 0 0 0 415.017 68.282 A 10.883 10.883 0 0 0 417.421 70.11 Q 419.851 71.46 422.731 71.46 Q 425.521 71.46 428.041 70.11 A 11.186 11.186 0 0 0 431.229 67.522 A 14.27 14.27 0 0 0 432.361 66.015 A 18.773 18.773 0 0 0 433.89 63.135 Q 434.667 61.329 435.241 59.13 A 31.417 31.417 0 0 0 436.016 54.952 Q 436.321 52.417 436.321 49.5 A 47.694 47.694 0 0 0 436.114 44.946 Q 435.89 42.611 435.422 40.571 A 28.077 28.077 0 0 0 435.241 39.825 A 28.638 28.638 0 0 0 434.237 36.662 Q 433.411 34.525 432.316 32.895 Q 430.471 30.15 427.996 28.755 Q 425.521 27.36 422.731 27.36 Q 417.151 27.36 413.191 32.94 Z M 301.141 36.63 L 301.141 64.62 A 16.135 16.135 0 0 0 312.846 70.352 A 20.069 20.069 0 0 0 313.921 70.38 A 10.024 10.024 0 0 0 321.878 66.65 A 15.224 15.224 0 0 0 323.326 64.62 A 19.768 19.768 0 0 0 325.299 59.969 Q 326.642 55.377 326.776 48.744 A 74.028 74.028 0 0 0 326.791 47.25 A 38.787 38.787 0 0 0 326.486 42.213 Q 326.16 39.729 325.485 37.695 A 15.44 15.44 0 0 0 323.506 33.66 Q 320.221 28.98 314.821 28.98 A 15.367 15.367 0 0 0 304.353 33.106 A 23.911 23.911 0 0 0 301.141 36.63 Z M 520.291 44.46 L 531.451 44.46 Q 536.574 44.46 539.461 43.981 A 14.435 14.435 0 0 0 540.991 43.65 A 39.62 39.62 0 0 0 540.725 38.911 Q 540.44 36.547 539.848 34.569 A 18.092 18.092 0 0 0 538.741 31.725 A 10.502 10.502 0 0 0 537.319 29.528 A 6.392 6.392 0 0 0 532.261 27.18 Q 527.581 27.18 524.296 32.04 A 21.728 21.728 0 0 0 521.652 37.575 Q 520.651 40.68 520.291 44.46 Z M 239.041 7.83 Q 238.861 7.38 238.861 6.885 L 238.861 5.94 A 4.554 4.554 0 0 1 240.384 2.436 A 5.932 5.932 0 0 1 240.886 2.025 A 7.558 7.558 0 0 1 244.096 0.689 A 10.295 10.295 0 0 1 245.881 0.54 Q 248.671 0.54 250.426 2.205 A 5.502 5.502 0 0 1 252.05 5.266 A 8.014 8.014 0 0 1 252.181 6.75 A 4.329 4.329 0 0 1 250.699 10.095 A 5.891 5.891 0 0 1 250.156 10.53 Q 248.131 11.97 244.981 11.97 A 7.339 7.339 0 0 1 242.664 11.614 A 6.521 6.521 0 0 1 241.156 10.89 Q 239.491 9.81 239.041 7.83 Z M 566.358 63.843 A 6.187 6.187 0 0 0 564.121 63.45 Q 561.781 63.45 560.161 65.025 A 5.262 5.262 0 0 0 558.965 66.745 A 5.549 5.549 0 0 0 558.541 68.94 A 6.535 6.535 0 0 0 558.541 69.013 A 5.454 5.454 0 0 0 560.206 72.945 A 6.657 6.657 0 0 0 560.258 72.997 A 5.453 5.453 0 0 0 564.211 74.61 A 6.535 6.535 0 0 0 564.284 74.61 A 5.454 5.454 0 0 0 568.216 72.945 A 6.657 6.657 0 0 0 568.268 72.893 A 5.453 5.453 0 0 0 569.881 68.94 A 6.455 6.455 0 0 0 569.878 68.758 A 5.147 5.147 0 0 0 568.216 65.025 A 5.619 5.619 0 0 0 566.358 63.843 Z"/></g></svg>